<svg viewBox="0 0 100 100" xmlns="http://www.w3.org/2000/svg" width="200" height="200">
  <defs>
    <linearGradient id="ignisGrad" x1="0%" y1="100%" x2="100%" y2="0%">
      <stop offset="0%" stop-color="#FF416C"/>
      <stop offset="100%" stop-color="#FF4B2B"/>
    </linearGradient>
  </defs>

  <path d="M45 6 C 53 16 66 28 74 42 C 80 53 82 64 79 75 C 76 88 65 96 50 96 C 34 96 23 88 20 75 C 17 63 20 50 27 39 C 33 30 38 20 45 6 Z" fill="url(#ignisGrad)"/>

  <g transform="translate(0 12)">
    <path d="M50 72 L36 54 M50 72 L64 54 M36 54 L50 36 M64 54 L50 36" stroke="#FFFFFF" stroke-width="3" stroke-linecap="round" stroke-linejoin="round"/>

    <rect x="43" y="65" width="14" height="14" rx="4" fill="#FFFFFF"/>
    <rect x="29" y="47" width="14" height="14" rx="4" fill="#FFFFFF"/>
    <rect x="57" y="47" width="14" height="14" rx="4" fill="#FFFFFF"/>
    <rect x="43" y="29" width="14" height="14" rx="4" fill="#FFFFFF"/>
  </g>
</svg>
